<svg xmlns="http://www.w3.org/2000/svg" width="21" height="20" viewBox="0 0 21 20" fill="none"><g id="Group"><g id="Clip path group"><mask id="mask0_2284_8738" style="mask-type:luminance" maskUnits="userSpaceOnUse" x="0" y="0" width="21" height="20"><g id="SVGID_00000034072069898506611590000005887493444347901861_"><path id="Vector" d="M20.167 0H0.166992V20H20.167V0Z" fill="white"></path></g></mask><g mask="url(#mask0_2284_8738)"><g id="Group_2"><g id="Group_3"><path id="Vector_2" d="M10.1955 0C4.66842 0 0.166992 4.50142 0.166992 10.0285C0.166992 15.5555 4.66842 20.057 10.1955 20.057C15.7225 20.057 20.224 15.5555 20.224 10.0285C20.224 4.50142 15.7225 0 10.1955 0ZM10.3094 2.96296C12.4177 2.96296 14.0701 4.67236 14.0701 6.72364C14.0701 8.8319 12.3607 10.4843 10.3094 10.4843C8.20118 10.4843 6.54876 8.77492 6.54876 6.72364C6.54876 4.67236 8.25816 2.96296 10.3094 2.96296ZM10.5943 17.5498C6.7197 17.6638 4.21258 14.5869 4.21258 14.5869C4.21258 14.5869 4.66842 13.3903 6.03594 12.5926C6.94762 12.0228 8.37212 11.7949 10.1385 11.7379C11.9619 11.6809 13.3864 11.9088 14.412 12.4786C15.8935 13.3333 16.5203 14.5869 16.5203 14.5869C16.5203 14.5869 14.412 17.3789 10.5943 17.5498Z" fill="#4A3728"></path></g></g></g></g></g></svg>