<svg xmlns="http://www.w3.org/2000/svg" width="34" height="33" viewBox="0 0 34 33" fill="none"><g id="instagram"><path id="Vector" d="M11.2396 2.75H22.7896C27.1896 2.75 30.7646 6.325 30.7646 10.725V22.275C30.7646 24.3901 29.9244 26.4186 28.4288 27.9142C26.9332 29.4098 24.9048 30.25 22.7896 30.25H11.2396C6.83965 30.25 3.26465 26.675 3.26465 22.275V10.725C3.26465 8.6099 4.10487 6.58143 5.60047 5.08582C7.09607 3.59022 9.12455 2.75 11.2396 2.75ZM10.9646 5.5C9.65183 5.5 8.39278 6.02152 7.46447 6.94982C6.53616 7.87813 6.01465 9.13718 6.01465 10.45V22.55C6.01465 25.2862 8.2284 27.5 10.9646 27.5H23.0646C24.3775 27.5 25.6365 26.9785 26.5648 26.0502C27.4931 25.1219 28.0146 23.8628 28.0146 22.55V10.45C28.0146 7.71375 25.8009 5.5 23.0646 5.5H10.9646ZM24.2334 7.5625C24.6892 7.5625 25.1264 7.74358 25.4487 8.06591C25.7711 8.38824 25.9521 8.82541 25.9521 9.28125C25.9521 9.73709 25.7711 10.1743 25.4487 10.4966C25.1264 10.8189 24.6892 11 24.2334 11C23.7776 11 23.3404 10.8189 23.0181 10.4966C22.6957 10.1743 22.5146 9.73709 22.5146 9.28125C22.5146 8.82541 22.6957 8.38824 23.0181 8.06591C23.3404 7.74358 23.7776 7.5625 24.2334 7.5625ZM17.0146 9.625C18.838 9.625 20.5867 10.3493 21.876 11.6386C23.1653 12.928 23.8896 14.6766 23.8896 16.5C23.8896 18.3234 23.1653 20.072 21.876 21.3614C20.5867 22.6507 18.838 23.375 17.0146 23.375C15.1913 23.375 13.4426 22.6507 12.1533 21.3614C10.864 20.072 10.1396 18.3234 10.1396 16.5C10.1396 14.6766 10.864 12.928 12.1533 11.6386C13.4426 10.3493 15.1913 9.625 17.0146 9.625ZM17.0146 12.375C15.9206 12.375 14.8714 12.8096 14.0978 13.5832C13.3242 14.3568 12.8896 15.406 12.8896 16.5C12.8896 17.594 13.3242 18.6432 14.0978 19.4168C14.8714 20.1904 15.9206 20.625 17.0146 20.625C18.1087 20.625 19.1579 20.1904 19.9315 19.4168C20.7051 18.6432 21.1396 17.594 21.1396 16.5C21.1396 15.406 20.7051 14.3568 19.9315 13.5832C19.1579 12.8096 18.1087 12.375 17.0146 12.375Z" fill="white"></path></g></svg>