<svg xmlns="http://www.w3.org/2000/svg" width="34" height="33" viewBox="0 0 34 33" fill="none"><g id="youtube"><path id="Vector" d="M14.2646 20.625L21.4009 16.5L14.2646 12.375V20.625ZM30.1596 9.85875C30.3384 10.505 30.4621 11.3712 30.5446 12.4712C30.6409 13.5712 30.6821 14.52 30.6821 15.345L30.7646 16.5C30.7646 19.5113 30.5446 21.725 30.1596 23.1413C29.8159 24.3787 29.0184 25.1762 27.7809 25.52C27.1346 25.6987 25.9521 25.8225 24.1371 25.905C22.3496 26.0012 20.7134 26.0425 19.2009 26.0425L17.0146 26.125C11.2534 26.125 7.66465 25.905 6.2484 25.52C5.0109 25.1762 4.2134 24.3787 3.86965 23.1413C3.6909 22.495 3.56715 21.6288 3.48465 20.5288C3.3884 19.4288 3.34715 18.48 3.34715 17.655L3.26465 16.5C3.26465 13.4887 3.48465 11.275 3.86965 9.85875C4.2134 8.62125 5.0109 7.82375 6.2484 7.48C6.89465 7.30125 8.07715 7.1775 9.89215 7.095C11.6796 6.99875 13.3159 6.9575 14.8284 6.9575L17.0146 6.875C22.7759 6.875 26.3646 7.095 27.7809 7.48C29.0184 7.82375 29.8159 8.62125 30.1596 9.85875Z" fill="white"></path></g></svg>