<svg xmlns="http://www.w3.org/2000/svg" width="32" height="32" viewBox="0 0 32 32" fill="none"><g id="youtube"><path id="Vector" d="M13.3337 20.0003L20.2537 16.0003L13.3337 12.0003V20.0003ZM28.747 9.56033C28.9203 10.187 29.0403 11.027 29.1203 12.0937C29.2137 13.1603 29.2537 14.0803 29.2537 14.8803L29.3337 16.0003C29.3337 18.9203 29.1203 21.067 28.747 22.4403C28.4137 23.6403 27.6403 24.4137 26.4403 24.747C25.8137 24.9203 24.667 25.0403 22.907 25.1203C21.1737 25.2137 19.587 25.2537 18.1203 25.2537L16.0003 25.3337C10.4137 25.3337 6.93366 25.1203 5.56033 24.747C4.36033 24.4137 3.58699 23.6403 3.25366 22.4403C3.08033 21.8137 2.96033 20.9737 2.88033 19.907C2.78699 18.8403 2.74699 17.9203 2.74699 17.1203L2.66699 16.0003C2.66699 13.0803 2.88033 10.9337 3.25366 9.56033C3.58699 8.36033 4.36033 7.58699 5.56033 7.25366C6.18699 7.08033 7.33366 6.96033 9.09366 6.88033C10.827 6.78699 12.4137 6.74699 13.8803 6.74699L16.0003 6.66699C21.587 6.66699 25.067 6.88033 26.4403 7.25366C27.6403 7.58699 28.4137 8.36033 28.747 9.56033Z" fill="#FEBC11"></path></g></svg>