<svg xmlns="http://www.w3.org/2000/svg" width="32" height="32" viewBox="0 0 32 32" fill="none"><g id="facebook"><path id="Vector" d="M16.0003 2.71973C8.66699 2.71973 2.66699 8.70639 2.66699 16.0797C2.66699 22.7464 7.54699 28.2797 13.9203 29.2797V19.9464H10.5337V16.0797H13.9203V13.1331C13.9203 9.78639 15.907 7.94639 18.9603 7.94639C20.4137 7.94639 21.9337 8.19973 21.9337 8.19973V11.4931H20.2537C18.6003 11.4931 18.0803 12.5197 18.0803 13.5731V16.0797H21.787L21.187 19.9464H18.0803V29.2797C21.2222 28.7835 24.0833 27.1804 26.1469 24.7598C28.2105 22.3392 29.3408 19.2606 29.3337 16.0797C29.3337 8.70639 23.3337 2.71973 16.0003 2.71973Z" fill="#FEBC11"></path></g></svg>