<svg xmlns="http://www.w3.org/2000/svg" width="34" height="33" viewBox="0 0 34 33" fill="none"><g id="facebook"><path id="Vector" d="M16.8359 2.80518C9.27344 2.80518 3.08594 8.97893 3.08594 16.5827C3.08594 23.4577 8.11844 29.1639 14.6909 30.1952V20.5702H11.1984V16.5827H14.6909V13.5439C14.6909 10.0927 16.7397 8.19518 19.8884 8.19518C21.3872 8.19518 22.9547 8.45643 22.9547 8.45643V11.8527H21.2222C19.5172 11.8527 18.9809 12.9114 18.9809 13.9977V16.5827H22.8034L22.1847 20.5702H18.9809V30.1952C22.221 29.6835 25.1715 28.0303 27.2996 25.534C29.4277 23.0378 30.5933 19.8629 30.5859 16.5827C30.5859 8.97893 24.3984 2.80518 16.8359 2.80518Z" fill="white"></path></g></svg>